<svg width="57" height="23" viewBox="0 0 57 23" fill="none" xmlns="http://www.w3.org/2000/svg">
<path d="M39.3616 15.3H33.5116L32.3956 18H29.4076L35.0236 5.4H37.9036L43.5376 18H40.4776L39.3616 15.3ZM38.4436 13.086L36.4456 8.262L34.4476 13.086H38.4436ZM44.6468 4.644H47.4548V18H44.6468V4.644ZM50.0609 4.644H52.8689V18H50.0609V4.644Z" fill="#464B4E"/>
<path d="M22.5372 5.42275H0.462785C0.20718 5.42275 0 5.21557 0 4.96001V4.38959C0 4.13398 0.20718 3.9268 0.462785 3.9268H22.5372C22.7928 3.9268 23 4.13398 23 4.38959V4.95996C23 5.21557 22.7928 5.42275 22.5372 5.42275Z" fill="#4A80AA"/>
<path d="M22.5373 5.42274H21.7846V3.92684H22.5373C22.7929 3.92684 23.0001 4.13402 23.0001 4.38963V4.96C23.0001 5.21556 22.7929 5.42274 22.5373 5.42274Z" fill="#407093"/>
<path d="M22.5372 23H0.462785C0.20718 23 0 22.7928 0 22.5372V21.9668C0 21.7112 0.20718 21.5041 0.462785 21.5041H22.5372C22.7928 21.5041 23 21.7112 23 21.9668V22.5372C23 22.7928 22.7928 23 22.5372 23Z" fill="#4A80AA"/>
<path d="M12.1354 21.5041C12.5826 22.0856 13.123 22.5918 13.7343 23H22.5372C22.7928 23 23 22.7928 23 22.5372V21.9668C23 21.7112 22.7928 21.5041 22.5372 21.5041H12.1354Z" fill="#407093"/>
<path d="M0.747925 5.42274H22.252V21.5041H0.747925V5.42274Z" fill="#F4FBFF"/>
<path d="M21.0366 5.42274V11.3253C21.0366 11.5417 20.7956 11.6682 20.6156 11.5482C19.7813 10.9918 18.8816 10.7733 17.63 10.7535C13.8819 10.6943 10.7511 13.6903 10.7521 17.4389C10.7526 18.9672 11.2689 20.377 12.1356 21.504H22.2521V5.42274H21.0366Z" fill="#E4F6FF"/>
<path d="M2.2439 21.5041V9.25139C2.2439 8.99578 2.45108 8.7886 2.70668 8.7886H9.9153C10.1709 8.7886 10.3781 8.99578 10.3781 9.25139V21.5041H2.2439Z" fill="#9D6B6B"/>
<path d="M9.1626 21.5041V8.7886H9.91526C10.1709 8.7886 10.378 8.99578 10.378 9.25139V21.5041H9.1626Z" fill="#8B5E5E"/>
<path d="M3.73981 13.8411V10.6547C3.73981 10.4503 3.90557 10.2845 4.11001 10.2845H8.51186C8.71634 10.2845 8.88206 10.4503 8.88206 10.6547V13.8411C8.88206 14.0456 8.7163 14.2113 8.51186 14.2113H4.11001C3.90557 14.2114 3.73981 14.0456 3.73981 13.8411Z" fill="#BED8FB"/>
<path d="M4.5813 19.6379V18.8824C4.5813 18.6779 4.74706 18.5122 4.9515 18.5122H7.6704C7.87488 18.5122 8.0406 18.678 8.0406 18.8824V19.6379C8.0406 19.8424 7.87484 20.0081 7.6704 20.0081H4.9515C4.74706 20.0081 4.5813 19.8424 4.5813 19.6379Z" fill="#4A80AA"/>
<path d="M20.7561 17.4837V9.25139C20.7561 8.99578 20.5489 8.7886 20.2933 8.7886H12.3367C12.0811 8.7886 11.874 8.99578 11.874 9.25139V17.4837H20.7561Z" fill="#BED8FB"/>
<path d="M20.7561 11.6358C19.7776 11.0737 18.6442 10.752 17.437 10.752C15.1194 10.752 13.0737 11.9378 11.874 13.7342V17.4837H20.7562V11.6358H20.7561Z" fill="#9DC6FB"/>
<path d="M4.30081 3.92685H1.77643L2.19532 0.40807C2.22304 0.175285 2.42043 0 2.65483 0H4.30077V3.92685H4.30081Z" fill="#B3E59F"/>
<path d="M4.3009 0H6.35783V3.92685H4.3009V0Z" fill="#FFE07D"/>
<path d="M6.35779 0H8.41472V3.92685H6.35779V0Z" fill="#B3E59F"/>
<path d="M8.41467 0H10.4716V3.92685H8.41467V0Z" fill="#FFE07D"/>
<path d="M10.4716 0H12.5285V3.92685H10.4716V0Z" fill="#B3E59F"/>
<path d="M12.5285 0H14.5854V3.92685H12.5285V0Z" fill="#FFE07D"/>
<path d="M14.5854 0H16.6424V3.92685H14.5854V0Z" fill="#B3E59F"/>
<path d="M16.6423 0H18.6993V3.92685H16.6423V0Z" fill="#FFE07D"/>
<path d="M21.2237 3.92685H18.6993V0H20.3452C20.5796 0 20.7771 0.175285 20.8048 0.40807L21.2237 3.92685Z" fill="#B3E59F"/>
<path d="M17.437 23C20.5094 23 23 20.5094 23 17.437C23 14.3647 20.5094 11.874 17.437 11.874C14.3647 11.874 11.874 14.3647 11.874 17.437C11.874 20.5094 14.3647 23 17.437 23Z" fill="#FFE07D"/>
<path d="M15.5204 21.6911C14.8543 21.6911 14.2074 21.6087 13.5892 21.4543C14.5884 22.4117 15.944 23 17.4371 23C20.5094 23 23.0001 20.5094 23.0001 17.437C23.0001 17.1531 22.9787 16.8743 22.9376 16.6018C21.7898 19.5787 18.902 21.6911 15.5204 21.6911Z" fill="#FFD064"/>
<path d="M17.437 21.4304C17.2453 21.4304 17.09 21.275 17.09 21.0834V19.4939C17.09 19.3022 17.2453 19.1469 17.437 19.1469C17.6288 19.1469 17.7841 19.3022 17.7841 19.4939V21.0834C17.7841 21.275 17.6288 21.4304 17.437 21.4304Z" fill="#5AA687"/>
<path d="M17.7596 14.276C17.6172 14.025 17.2568 14.025 17.1144 14.276C16.8587 14.7266 16.5443 15.4585 16.5443 16.3322C16.5443 16.5675 16.5673 16.7954 16.6056 17.0127C16.5171 16.897 16.4199 16.7839 16.3123 16.6763C15.7582 16.1222 15.0896 15.8593 14.6276 15.7363C14.3537 15.6633 14.1025 15.9145 14.1755 16.1884C14.2985 16.6504 14.5614 17.319 15.1155 17.8731C15.2965 18.0541 15.4928 18.2069 15.6918 18.3357C15.627 18.3309 15.5614 18.3283 15.495 18.3283C14.9519 18.3283 14.4841 18.4999 14.1545 18.6693C13.8881 18.8064 13.8881 19.1892 14.1545 19.3262C14.4841 19.4956 14.9519 19.6672 15.495 19.6672C15.6217 19.6672 15.7455 19.6576 15.8655 19.6411C15.757 19.8537 15.7175 20.0888 15.7071 20.2842C15.6942 20.5257 15.9107 20.7169 16.1478 20.6691C16.396 20.619 16.7081 20.5077 16.9535 20.2624C17.2104 20.0055 17.3626 19.6583 17.437 19.4441C17.5114 19.6583 17.6637 20.0055 17.9206 20.2624C18.1659 20.5077 18.4781 20.619 18.7262 20.6691C18.9633 20.717 19.1799 20.5257 19.1669 20.2842C19.1565 20.0888 19.117 19.8537 19.0086 19.6411C19.1286 19.6576 19.2523 19.6672 19.3791 19.6672C19.9221 19.6672 20.39 19.4956 20.7195 19.3262C20.9859 19.1892 20.9859 18.8064 20.7195 18.6693C20.3899 18.4999 19.9221 18.3283 19.3791 18.3283C19.3126 18.3283 19.247 18.3309 19.1823 18.3357C19.3813 18.2069 19.5775 18.0541 19.7585 17.8731C20.3126 17.319 20.5756 16.6504 20.6986 16.1884C20.7715 15.9145 20.5204 15.6633 20.2464 15.7363C19.7844 15.8593 19.1158 16.1222 18.5617 16.6763C18.4541 16.7839 18.357 16.897 18.2684 17.0127C18.3067 16.7954 18.3297 16.5675 18.3297 16.3322C18.3297 15.4585 18.0152 14.7266 17.7596 14.276Z" fill="#B3E59F"/>
<path d="M8.53502 16.0544H7.60006C7.40833 16.0544 7.25299 15.899 7.25299 15.7073C7.25299 15.5157 7.40838 15.3603 7.60006 15.3603H8.53502C8.72674 15.3603 8.88208 15.5157 8.88208 15.7073C8.88213 15.899 8.72674 16.0544 8.53502 16.0544Z" fill="#FFE07D"/>
</svg>
