<svg width="95" height="22" viewBox="0 0 95 22" fill="none" xmlns="http://www.w3.org/2000/svg">
<path d="M14.03 14.285C14.03 15.5423 13.57 16.6233 12.65 17.528C11.73 18.4173 10.4037 18.9693 8.671 19.184V21.76H6.371V19.253C5.23633 19.1917 4.15533 18.9923 3.128 18.655C2.10067 18.3177 1.27267 17.9037 0.644 17.413L1.909 14.607C2.49167 15.0363 3.174 15.3967 3.956 15.688C4.738 15.9793 5.543 16.1633 6.371 16.24V12.399C5.28233 12.1383 4.36233 11.847 3.611 11.525C2.85967 11.203 2.231 10.7353 1.725 10.122C1.219 9.49333 0.966 8.66533 0.966 7.638C0.966 6.36533 1.426 5.27667 2.346 4.372C3.28133 3.452 4.623 2.89233 6.371 2.693V0.139999H8.671V2.647C10.557 2.80033 12.1133 3.268 13.34 4.05L12.19 6.879C11.04 6.21967 9.867 5.821 8.671 5.683V9.593C9.74433 9.83833 10.649 10.122 11.385 10.444C12.1363 10.7507 12.765 11.2183 13.271 11.847C13.777 12.4603 14.03 13.273 14.03 14.285ZM4.669 7.454C4.669 7.83733 4.81467 8.15167 5.106 8.397C5.39733 8.64233 5.819 8.84933 6.371 9.018V5.752C5.78833 5.89 5.359 6.11233 5.083 6.419C4.807 6.71033 4.669 7.05533 4.669 7.454ZM8.671 16.148C9.223 16.0253 9.637 15.826 9.913 15.55C10.189 15.274 10.327 14.9443 10.327 14.561C10.327 14.1777 10.1813 13.8633 9.89 13.618C9.614 13.3727 9.20767 13.158 8.671 12.974V16.148ZM21.084 8.949C23.3533 8.949 25.0247 9.40133 26.098 10.306C27.1867 11.2107 27.731 12.422 27.731 13.94C27.731 14.9213 27.4857 15.8183 26.995 16.631C26.5043 17.4283 25.753 18.0723 24.741 18.563C23.7443 19.0383 22.51 19.276 21.038 19.276C19.9033 19.276 18.784 19.1303 17.68 18.839C16.5913 18.5323 15.6637 18.103 14.897 17.551L16.369 14.699C16.9823 15.159 17.6877 15.5193 18.485 15.78C19.2823 16.0253 20.1027 16.148 20.946 16.148C21.8813 16.148 22.6173 15.964 23.154 15.596C23.6907 15.228 23.959 14.7143 23.959 14.055C23.959 13.365 23.6753 12.8437 23.108 12.491C22.556 12.1383 21.59 11.962 20.21 11.962H16.093L16.921 2.9H26.742V5.89H20.026L19.773 8.949H21.084ZM31.3587 19.184C30.73 19.184 30.201 18.9693 29.7717 18.54C29.3424 18.1107 29.1277 17.574 29.1277 16.93C29.1277 16.2707 29.3424 15.7417 29.7717 15.343C30.201 14.929 30.73 14.722 31.3587 14.722C31.9874 14.722 32.5164 14.929 32.9457 15.343C33.375 15.7417 33.5897 16.2707 33.5897 16.93C33.5897 17.574 33.375 18.1107 32.9457 18.54C32.5164 18.9693 31.9874 19.184 31.3587 19.184ZM43.0078 9.455C44.4185 9.685 45.4995 10.214 46.2508 11.042C47.0022 11.8547 47.3778 12.8667 47.3778 14.078C47.3778 15.0133 47.1325 15.8797 46.6418 16.677C46.1512 17.459 45.3998 18.0877 44.3878 18.563C43.3912 19.0383 42.1645 19.276 40.7078 19.276C39.5732 19.276 38.4538 19.1303 37.3498 18.839C36.2612 18.5323 35.3335 18.103 34.5668 17.551L36.0158 14.699C36.6292 15.159 37.3345 15.5193 38.1318 15.78C38.9445 16.0253 39.7725 16.148 40.6158 16.148C41.5512 16.148 42.2872 15.9717 42.8238 15.619C43.3605 15.251 43.6288 14.7373 43.6288 14.078C43.6288 12.7593 42.6245 12.1 40.6158 12.1H38.9138V9.639L42.2258 5.89H35.3718V2.9H46.6418V5.315L43.0078 9.455ZM55.3082 2.9V19H51.5822V5.89H48.3622V2.9H55.3082Z" fill="#464B4E"/>
<path d="M67.544 19.084C66.2747 19.084 65.2853 18.72 64.576 17.992C63.8667 17.264 63.512 16.2047 63.512 14.814V9.2H64.548V14.772C64.548 15.9107 64.8047 16.76 65.318 17.32C65.8313 17.88 66.5733 18.16 67.544 18.16C68.524 18.16 69.2707 17.88 69.784 17.32C70.2973 16.76 70.554 15.9107 70.554 14.772V9.2H71.562V14.814C71.562 16.2047 71.2073 17.264 70.498 17.992C69.798 18.72 68.8133 19.084 67.544 19.084ZM77.3859 19.084C76.6579 19.084 75.9579 18.9673 75.2859 18.734C74.6232 18.5007 74.1099 18.1927 73.7459 17.81L74.1519 17.012C74.5066 17.3667 74.9779 17.656 75.5659 17.88C76.1539 18.0947 76.7606 18.202 77.3859 18.202C78.2632 18.202 78.9212 18.0433 79.3599 17.726C79.7986 17.3993 80.0179 16.9793 80.0179 16.466C80.0179 16.074 79.8966 15.7613 79.6539 15.528C79.4206 15.2947 79.1312 15.1173 78.7859 14.996C78.4406 14.8653 77.9599 14.7253 77.3439 14.576C76.6066 14.3893 76.0186 14.212 75.5799 14.044C75.1412 13.8667 74.7632 13.6007 74.4459 13.246C74.1379 12.8913 73.9839 12.4107 73.9839 11.804C73.9839 11.3093 74.1146 10.8613 74.3759 10.46C74.6372 10.0493 75.0386 9.72267 75.5799 9.48C76.1212 9.23733 76.7932 9.116 77.5959 9.116C78.1559 9.116 78.7019 9.19533 79.2339 9.354C79.7752 9.50333 80.2419 9.71333 80.6339 9.984L80.2839 10.81C79.8732 10.5393 79.4346 10.3387 78.9679 10.208C78.5012 10.068 78.0439 9.998 77.5959 9.998C76.7372 9.998 76.0886 10.166 75.6499 10.502C75.2206 10.8287 75.0059 11.2533 75.0059 11.776C75.0059 12.168 75.1226 12.4853 75.3559 12.728C75.5986 12.9613 75.8972 13.1433 76.2519 13.274C76.6159 13.3953 77.1012 13.5307 77.7079 13.68C78.4266 13.8573 79.0052 14.0347 79.4439 14.212C79.8919 14.38 80.2699 14.6413 80.5779 14.996C80.8859 15.3413 81.0399 15.8127 81.0399 16.41C81.0399 16.9047 80.9046 17.3573 80.6339 17.768C80.3726 18.1693 79.9666 18.4913 79.4159 18.734C78.8652 18.9673 78.1886 19.084 77.3859 19.084ZM83.2972 9.2H87.2872C88.3232 9.2 89.2378 9.41 90.0312 9.83C90.8245 10.2407 91.4405 10.8193 91.8792 11.566C92.3178 12.3033 92.5372 13.148 92.5372 14.1C92.5372 15.052 92.3178 15.9013 91.8792 16.648C91.4405 17.3853 90.8245 17.964 90.0312 18.384C89.2378 18.7947 88.3232 19 87.2872 19H83.2972V9.2ZM87.2312 18.104C88.0898 18.104 88.8412 17.936 89.4852 17.6C90.1292 17.2547 90.6285 16.7833 90.9832 16.186C91.3378 15.5793 91.5152 14.884 91.5152 14.1C91.5152 13.316 91.3378 12.6253 90.9832 12.028C90.6285 11.4213 90.1292 10.95 89.4852 10.614C88.8412 10.2687 88.0898 10.096 87.2312 10.096H84.3332V18.104H87.2312Z" fill="#464B4E"/>
</svg>
