<svg width="152" height="24" viewBox="0 0 152 24" fill="none" xmlns="http://www.w3.org/2000/svg">
<path d="M19.5 24H4.5C2.01453 24 0 21.9855 0 19.5V4.5C0 2.01453 2.01453 0 4.5 0H19.5C21.9855 0 24 2.01453 24 4.5V19.5C24 21.9855 21.9855 24 19.5 24Z" fill="#FFF9DD"/>
<path d="M18.9404 10.2959C18.8489 10.0011 18.5976 9.79269 18.3029 9.76447L14.2745 9.38233L12.6821 5.49382C12.5652 5.20788 12.2975 5.02325 12.0001 5.02325C11.7026 5.02325 11.435 5.20788 11.3181 5.49382L9.72565 9.38233L5.69719 9.76447C5.40165 9.79269 5.15126 10.0011 5.0597 10.2959C4.96815 10.5907 5.05268 10.9138 5.27603 11.1186L8.32144 13.9043L7.42312 18.0303C7.3569 18.3333 7.47018 18.6473 7.71099 18.8292C7.84002 18.9276 7.99269 18.9767 8.1462 18.9767C8.27694 18.9767 8.40873 18.9403 8.52648 18.8665L12.0001 16.6999L15.4728 18.8665C15.7275 19.025 16.0477 19.0114 16.2883 18.8292C16.5291 18.6473 16.6424 18.3333 16.5762 18.0303L15.6778 13.9043L18.7233 11.1177C18.9475 10.9138 19.032 10.5907 18.9404 10.2959Z" fill="#FFD200"/>
<path d="M51.5 24H36.5C34.0145 24 32 21.9855 32 19.5V4.5C32 2.01453 34.0145 0 36.5 0H51.5C53.9855 0 56 2.01453 56 4.5V19.5C56 21.9855 53.9855 24 51.5 24Z" fill="#FFF9DD"/>
<path d="M50.9404 10.2959C50.8489 10.0011 50.5976 9.79269 50.3029 9.76447L46.2745 9.38233L44.6821 5.49382C44.5652 5.20788 44.2975 5.02325 44.0001 5.02325C43.7026 5.02325 43.435 5.20788 43.3181 5.49382L41.7256 9.38233L37.6972 9.76447C37.4017 9.79269 37.1513 10.0011 37.0597 10.2959C36.9681 10.5907 37.0527 10.9138 37.276 11.1186L40.3214 13.9043L39.4231 18.0303C39.3569 18.3333 39.4702 18.6473 39.711 18.8292C39.84 18.9276 39.9927 18.9767 40.1462 18.9767C40.2769 18.9767 40.4087 18.9403 40.5265 18.8665L44.0001 16.6999L47.4728 18.8665C47.7275 19.025 48.0477 19.0114 48.2883 18.8292C48.5291 18.6473 48.6424 18.3333 48.5762 18.0303L47.6778 13.9043L50.7233 11.1177C50.9475 10.9138 51.032 10.5907 50.9404 10.2959Z" fill="#FFD200"/>
<path d="M83.5 24H68.5C66.0145 24 64 21.9855 64 19.5V4.5C64 2.01453 66.0145 0 68.5 0H83.5C85.9855 0 88 2.01453 88 4.5V19.5C88 21.9855 85.9855 24 83.5 24Z" fill="#FFF9DD"/>
<path d="M82.9404 10.2959C82.8489 10.0011 82.5976 9.79269 82.3029 9.76447L78.2745 9.38233L76.6821 5.49382C76.5652 5.20788 76.2975 5.02325 76.0001 5.02325C75.7026 5.02325 75.435 5.20788 75.3181 5.49382L73.7256 9.38233L69.6972 9.76447C69.4017 9.79269 69.1513 10.0011 69.0597 10.2959C68.9681 10.5907 69.0527 10.9138 69.276 11.1186L72.3214 13.9043L71.4231 18.0303C71.3569 18.3333 71.4702 18.6473 71.711 18.8292C71.84 18.9276 71.9927 18.9767 72.1462 18.9767C72.2769 18.9767 72.4087 18.9403 72.5265 18.8665L76.0001 16.6999L79.4728 18.8665C79.7275 19.025 80.0477 19.0114 80.2883 18.8292C80.5291 18.6473 80.6424 18.3333 80.5762 18.0303L79.6778 13.9043L82.7233 11.1177C82.9475 10.9138 83.032 10.5907 82.9404 10.2959Z" fill="#FFD200"/>
<path d="M115.5 24H100.5C98.0145 24 96 21.9855 96 19.5V4.5C96 2.01453 98.0145 0 100.5 0H115.5C117.985 0 120 2.01453 120 4.5V19.5C120 21.9855 117.985 24 115.5 24Z" fill="#FFF9DD"/>
<path d="M114.94 10.2959C114.849 10.0011 114.598 9.79269 114.303 9.76447L110.274 9.38233L108.682 5.49382C108.565 5.20788 108.298 5.02325 108 5.02325C107.703 5.02325 107.435 5.20788 107.318 5.49382L105.726 9.38233L101.697 9.76447C101.402 9.79269 101.151 10.0011 101.06 10.2959C100.968 10.5907 101.053 10.9138 101.276 11.1186L104.321 13.9043L103.423 18.0303C103.357 18.3333 103.47 18.6473 103.711 18.8292C103.84 18.9276 103.993 18.9767 104.146 18.9767C104.277 18.9767 104.409 18.9403 104.526 18.8665L108 16.6999L111.473 18.8665C111.727 19.025 112.048 19.0114 112.288 18.8292C112.529 18.6473 112.642 18.3333 112.576 18.0303L111.678 13.9043L114.723 11.1177C114.947 10.9138 115.032 10.5907 114.94 10.2959Z" fill="#FFD200"/>
<path d="M147.5 24H132.5C130.015 24 128 21.9855 128 19.5V4.5C128 2.01453 130.015 0 132.5 0H147.5C149.985 0 152 2.01453 152 4.5V19.5C152 21.9855 149.985 24 147.5 24Z" fill="#FFF9DD"/>
<path d="M146.94 10.2959C146.849 10.0011 146.598 9.79269 146.303 9.76447L142.274 9.38233L140.682 5.49382C140.565 5.20788 140.298 5.02325 140 5.02325C139.703 5.02325 139.435 5.20788 139.318 5.49382L137.726 9.38233L133.697 9.76447C133.402 9.79269 133.151 10.0011 133.06 10.2959C132.968 10.5907 133.053 10.9138 133.276 11.1186L136.321 13.9043L135.423 18.0303C135.357 18.3333 135.47 18.6473 135.711 18.8292C135.84 18.9276 135.993 18.9767 136.146 18.9767C136.277 18.9767 136.409 18.9403 136.526 18.8665L140 16.6999L143.473 18.8665C143.727 19.025 144.048 19.0114 144.288 18.8292C144.529 18.6473 144.642 18.3333 144.576 18.0303L143.678 13.9043L146.723 11.1177C146.947 10.9138 147.032 10.5907 146.94 10.2959Z" fill="#FFD200"/>
</svg>
