<svg width="16" height="14" viewBox="0 0 16 14" fill="none" xmlns="http://www.w3.org/2000/svg">
<path d="M7.75372 0.0979185L0.101577 7.43063C0.0363593 7.49325 -0.000162424 7.57815 6.19399e-07 7.66661L6.19399e-07 13.6661C-0.000358076 13.8502 0.15512 13.9997 0.347218 14C0.439826 14.0002 0.528685 13.9649 0.594098 13.9021L8.00002 6.80468L15.4059 13.9021C15.5416 14.0324 15.7618 14.0327 15.8978 13.9027C15.9634 13.84 16.0002 13.7548 16 13.6661V7.66661C16.0002 7.57815 15.9636 7.49325 15.8984 7.43063L8.24624 0.0979185C8.11059 -0.0324144 7.88973 -0.0320702 7.75372 0.0979185C7.75353 0.0981369 7.75395 0.0977306 7.75372 0.0979185Z" fill="#464B4E"/>
</svg>
